# xmcd
# Copyright (C) 1995-1998 Ti Kan
#
# Track frame offsets:
#       150
#       24900
#       46500
#
# Disc length: 909 seconds
#
# Revision: 0
# Processed by: cddbd v1.5.2PL0 Copyright (c) Steve Scherf et al.
# Submitted via: CD-Transfer v1.0
#
DISCID=12038b03
DTITLE=Bangkok Pisspots - 
DYEAR=1900
DGENRE=
TTITLE0=Bones
TTITLE1=Room
TTITLE2=Balantines
EXTD=
EXTT0=
EXTT1=
EXTT2=
PLAYORDER=
